# xmcd
#
# Track frame offsets:
#	150
#	11842
#	23153
#	34951
#	49332
#	60765
#	71571
#	86649
#	100527
#	112319
#	124079
#	134393
#	147403
#	158538
#	170182
#	183842
#	196754
#	208649
#	220255
#	232516
#	242499
#	254336
#	267800
#	278654
#	288341
#	300264
#	310890
#
# Disc length: 4284 seconds
#
# Revision: 0
# Processed by: cddbd v1.5.1PL2 Copyright (c) Steve Scherf et al.
# Submitted via: EasyCDDAExtractor 9.0.0.1
#
DISCID=7710ba1b
DTITLE=Various Artist - Boogie Uproar, Texas Blues and R&B (1947-54) - Disc D
DYEAR=2006
DGENRE=Blues
TTITLE0=Goree Carter - Seven Days
TTITLE1=Goree Carter - When Night Falls
TTITLE2=Goree Carter - Bull Corn Blues
TTITLE3=Goree Carter - My Wish
TTITLE4=Goree Carter - I've Got News For You
TTITLE5=Goree Carter - I'm Your Boogie Man
TTITLE6=Goree Carter - Please Say You're Mine
TTITLE7=Goree Carter - Tell Me, Is There Still A Chance
TTITLE8=Goree Carter - Let's Make Love
TTITLE9=Lester Williams - Winter Time Blues
TTITLE10=Lester Williams - I'm So Glad I Could Jump And Shout
TTITLE11=Lester Williams - Dowling Street Hop
TTITLE12=Lester Williams - All I Need Is You
TTITLE13=Lester Williams - I Know That Chick
TTITLE14=Lester Williams - Don't Treat Me So Low Down
TTITLE15=Lester Williams - Texas Town
TTITLE16=Lester Williams - Hey Jack
TTITLE17=Lester Williams - The Folks Around The Corner
TTITLE18=Lester Williams - Mary Lou
TTITLE19=Lester Williams - I Can't Lose With The Stuff I Use
TTITLE20=Lester Williams - My Home Ain't Here
TTITLE21=Lester Williams - Trying To Forget
TTITLE22=Lester Williams - Let Me Tell You A Thing Or Two
TTITLE23=Lester Williams - Lost Gal
TTITLE24=Lester Williams - Sweet Lovin' Daddy
TTITLE25=Lester Williams - Brand New Baby
TTITLE26=Lester Williams - If You Knew How Much I Loved You
EXTD=
EXTT0=
EXTT1=
EXTT2=
EXTT3=
EXTT4=
EXTT5=
EXTT6=
EXTT7=
EXTT8=
EXTT9=
EXTT10=
EXTT11=
EXTT12=
EXTT13=
EXTT14=
EXTT15=
EXTT16=
EXTT17=
EXTT18=
EXTT19=
EXTT20=
EXTT21=
EXTT22=
EXTT23=
EXTT24=
EXTT25=
EXTT26=
PLAYORDER=
